<?xml version="1.0" standalone="no"?>
<!DOCTYPE svg PUBLIC "-//W3C//DTD SVG 20010904//EN"
 "http://www.w3.org/TR/2001/REC-SVG-20010904/DTD/svg10.dtd">
<svg version="1.0" xmlns="http://www.w3.org/2000/svg"
 width="700.000000pt" height="700.000000pt" viewBox="0 0 700.000000 700.000000"
 preserveAspectRatio="xMidYMid meet">
<metadata>
Created by potrace 1.11, written by Peter Selinger 2001-2013
</metadata>
<g transform="translate(0.000000,700.000000) scale(0.100000,-0.100000)"
fill="#000000" stroke="none">
<path d="M3435 6950 c-81 -17 -128 -63 -254 -250 -71 -106 -356 -465 -389
-490 -4 -3 -22 -23 -41 -45 -125 -148 -470 -528 -696 -765 -126 -133 -704
-711 -810 -810 -65 -62 -145 -134 -269 -245 -6 -6 -63 -53 -126 -106 -225
-187 -354 -278 -576 -408 -138 -80 -229 -157 -255 -216 -13 -29 -17 -60 -16
-110 5 -132 72 -205 357 -385 269 -171 461 -312 725 -533 348 -292 794 -730
1165 -1146 41 -46 80 -89 85 -95 86 -95 321 -379 472 -571 57 -71 108 -136
113 -143 15 -17 180 -238 271 -363 129 -176 189 -222 289 -222 98 0 157 44
266 195 33 45 115 156 183 247 107 143 155 204 266 340 51 62 263 311 299 351
23 25 77 86 121 135 238 264 626 653 899 900 49 44 105 95 124 113 20 18 61
54 91 81 191 165 232 200 276 236 27 22 79 65 116 95 36 30 82 67 100 81 19
15 68 53 109 86 136 107 323 246 440 325 185 125 221 170 226 273 5 103 -34
151 -191 236 -213 115 -594 392 -868 633 -68 59 -187 165 -242 216 -101 93
-624 618 -735 739 -58 63 -110 119 -115 125 -22 23 -191 213 -220 246 -16 19
-48 55 -71 80 -181 200 -679 816 -769 950 -64 95 -150 184 -199 204 -43 18
-108 25 -151 16z m120 -901 c73 -20 238 -106 355 -184 106 -72 309 -223 372
-277 14 -13 43 -37 65 -55 48 -39 74 -61 146 -125 32 -29 68 -60 80 -71 84
-72 262 -243 437 -418 245 -245 349 -356 502 -535 340 -397 538 -725 539 -894
1 -84 -13 -133 -69 -240 -63 -123 -237 -372 -320 -458 -7 -8 -25 -30 -40 -50
-15 -20 -34 -44 -43 -52 -9 -8 -57 -60 -105 -115 -315 -356 -958 -971 -1296
-1242 -40 -32 -79 -64 -87 -71 -8 -8 -66 -53 -130 -101 -167 -125 -270 -190
-357 -226 -46 -19 -62 -21 -110 -13 -90 14 -181 57 -334 157 -87 57 -315 227
-414 310 -50 41 -100 83 -111 92 -45 38 -251 214 -261 224 -6 5 -58 53 -115
105 -99 91 -278 262 -453 435 -86 86 -332 346 -407 430 -24 28 -46 52 -49 55
-3 3 -25 30 -50 60 -25 30 -55 66 -68 81 -12 14 -54 68 -92 120 -39 52 -74 99
-79 104 -28 36 -118 198 -139 249 -48 117 -34 205 59 372 89 161 340 488 536
698 32 34 101 109 153 167 189 207 625 635 865 849 33 30 65 59 71 64 12 11
38 33 179 151 44 37 139 111 210 164 300 224 424 277 560 240z"/>
<path d="M3421 5903 c-71 -24 -293 -168 -416 -270 -5 -5 -57 -47 -115 -93 -58
-47 -119 -98 -136 -115 -17 -16 -45 -41 -61 -55 -140 -116 -315 -281 -593
-560 -288 -288 -407 -416 -585 -624 -27 -33 -55 -64 -60 -70 -73 -78 -275
-352 -339 -459 -89 -152 -94 -203 -32 -321 87 -163 329 -466 616 -770 189
-200 516 -520 680 -666 40 -36 83 -74 94 -85 19 -19 128 -113 202 -175 16 -13
70 -58 119 -100 216 -181 490 -376 625 -444 55 -27 81 -35 108 -31 41 5 157
73 270 157 42 32 88 65 101 75 323 238 1052 920 1440 1348 30 33 71 78 91 100
112 124 294 357 356 455 123 194 141 257 106 365 -34 109 -184 341 -364 567
-64 78 -124 152 -134 163 -11 11 -37 41 -58 65 -376 431 -974 991 -1396 1307
-157 117 -368 235 -441 246 -19 3 -54 -1 -78 -10z m159 -833 c61 -146 143
-339 182 -430 38 -91 74 -174 79 -185 4 -11 26 -62 48 -112 l40 -93 -92 -1
c-148 -2 -206 -5 -213 -12 -7 -7 -7 -148 1 -367 9 -268 17 -540 19 -605 l1
-70 -173 -3 -172 -2 5 182 c3 101 8 233 10 293 16 434 17 575 4 576 -8 1 -61
3 -118 5 -57 2 -106 5 -107 7 -2 1 79 249 179 549 100 301 184 544 188 540 4
-4 57 -126 119 -272z m-827 -1091 c67 -40 143 -84 168 -98 103 -58 105 -51
-22 -100 -132 -51 -268 -127 -322 -179 -43 -42 -78 -108 -72 -137 2 -11 4 -28
4 -38 1 -10 24 -43 52 -72 39 -42 76 -67 153 -104 100 -49 230 -96 290 -106
17 -3 39 -8 48 -11 30 -9 108 -20 218 -30 49 -4 324 -4 390 1 76 5 171 15 195
20 11 2 38 7 60 9 34 5 247 48 295 60 186 48 334 135 375 222 45 95 -9 186
-174 295 l-75 50 -122 -6 -123 -6 -41 127 c-22 70 -38 129 -35 132 3 3 22 0
42 -6 21 -7 168 -48 328 -93 159 -44 291 -82 294 -84 4 -5 2 -5 -62 -25 -21
-7 -36 -14 -33 -17 3 -3 46 -35 97 -72 115 -83 149 -128 156 -207 12 -136 -89
-242 -355 -373 -159 -79 -289 -123 -432 -146 -19 -3 -46 -7 -60 -10 -26 -5
-62 -9 -170 -21 -70 -7 -472 -7 -530 0 -19 3 -69 7 -110 11 -41 3 -90 8 -107
10 -18 3 -49 7 -68 10 -19 3 -52 7 -72 10 -249 34 -495 112 -709 225 -146 77
-255 176 -281 255 -14 41 -9 112 11 158 31 75 170 190 326 272 43 22 334 143
348 145 2 0 58 -32 125 -71z m913 -1139 c1 -14 5 -117 9 -230 12 -366 13 -393
20 -555 3 -88 7 -184 9 -212 3 -51 2 -53 -23 -54 -76 -3 -438 -4 -448 -1 -7 2
-11 18 -8 40 2 21 6 82 10 137 3 55 8 123 10 150 2 28 6 85 9 128 3 42 8 110
11 150 10 137 14 192 21 287 4 52 8 106 9 120 2 14 3 33 4 42 1 21 18 23 211
23 l155 0 1 -25z"/>
</g>
</svg>
