<svg enable-background="new 0 0 360 120" height="64" viewBox="0 0 64 64" width="64" xmlns="http://www.w3.org/2000/svg"><g fill="#4f2f81" transform="matrix(1.6586227 0 0 1.6586227 -36.583556 -29.625842)"><path d="m40.864415 56.149903c-.09462-.02453-.2313-.08761-.304896-.140182-.234804-.164713-.6168-.588764-.851605-.949732-.322418-.497646-1.457892-2.004602-2.362065-3.133068-1.850401-2.32001-3.494034-4.17742-5.389994-6.094407-2.28146-2.309498-4.072284-3.883039-6.097913-5.365463-.613296-.448582-1.811851-1.247619-2.137774-1.422846-.837587-.452087-1.485928-1.068887-1.622605-1.542001-.05958-.199759-.05257-.651846.01051-.869128.122659-.420546.665864-.907678 1.492937-1.335233 1.082905-.560727 2.305992-1.457892 3.925093-2.877233 2.772097-2.435661 6.998582-6.798822 10.292856-10.632798.998797-1.160005 1.520974-1.829374 1.815356-2.323515.445078-.749973.837587-1.174023 1.20206-1.303691.19275-.06659.634323-.06659.855109 0 .09112.02804.234805.09462.31541.1542.241814.164713.672873.648341.9252 1.033841.126164.19275.26985.413537.31541.483628.112145.164713 1.545505 1.959042 2.109738 2.638924 3.823459 4.597967 7.6294 8.48451 10.758961 10.983252 1.377285 1.096924 2.824666 2.085206 3.662252 2.491734.367977.178732.70091.469609.795533.6939.09462.217282.09112.641332-.007.904173-.09112.241814-.431059.595773-.749971.785019-.767497.448582-3.332826 2.40412-4.941414 3.767389-3.925091 3.322311-7.373568 6.847886-10.320892 10.548687-.658855.830578-1.776806 2.330526-1.931006 2.589863-.140182.238309-.490636.630816-.686891.767493-.273355.189247-.704414.248826-1.072391.147194zm1.054869-4.839782c1.352755-.53269 4.906366-3.501042 8.368859-6.995077 2.081703-2.099224 3.553611-3.819956 4.380687-5.113135.290875-.459095.623808-1.135473.700909-1.433359.09462-.343446.0771-.756983-.03855-1.121456-.497645-1.54901-2.400615-4.040743-5.414525-7.093204-3.315304-3.353852-6.483415-5.863108-8.081488-6.395799-.602782-.19976-.89366-.178733-1.506956.115649-2.807142 1.349251-10.401497 8.740342-12.658426 12.32199-.280364.448582-.543205.981273-.637828 1.293178-.175227.574746.01402 1.177528.693901 2.225388 2.155297 3.332824 9.469288 10.236783 12.602353 11.90495.732451.389001 1.149492.466103 1.591065.290875z"/><path d="m41.348043 50.588184c-.504655-.105136-1.885447-1.009309-3.346843-2.179828-4.45428-3.571134-9.472792-8.880524-10.14917-10.730925-.129669-.360968-.112146-.511664.136677-1.005805.883146-1.769796 4.173916-5.495131 7.892241-8.929587 1.927502-1.776806 3.830471-3.269743 4.780203-3.739353.417041-.210272.609791-.217281 1.037346-.04906 2.614393 1.033841 9.514847 7.527768 12.006581 11.298661.732451 1.107437 1.005805 1.783815.911181 2.228892-.234803 1.072392-1.980068 3.301285-4.892349 6.2416-3.329319 3.364366-6.995076 6.451872-8.158586 6.868914-.04205.014-.140181.014-.217281-.0035zm1.124959-4.187934c-.01051-.112145-.06308-1.454387-.11565-2.978865l-.09462-2.779107h-1.009312c-.557223 0-1.00931.01051-1.00931.02804 0 .01402-.09462 1.310701-.210273 2.880738-.11565 1.570038-.210273 2.898261-.210273 2.954334v.09462h1.335233 1.335233zm.381996-6.213563c1.230096-.08761 2.256929-.290877 3.101525-.613295.473113-.182237 1.352755-.62381 1.717228-.865624.445078-.290877.795532-.644836.949732-.956741.105137-.213778.119155-.276859.119155-.50816 0-.567736-.297886-.9252-1.310701-1.556019-.08411-.05257-.136677-.108641-.122659-.122659.01752-.01752.161209-.06659.318914-.108641.161209-.04556.287373-.08761.280364-.09112-.02453-.02453-3.753371-1.065383-3.763884-1.051364-.01051.01051.09112.339941.220786.735955l.241814.721936.227796-.0035c.126163 0 .417041-.01402.648341-.02804l.420545-.02804.23831.126163c.322418.171723.792028.525683.96375.728946.417042.50115.424051.911183.02103 1.342242-.483627.515169-1.216078.820064-2.687988 1.121455-1.310701.266346-2.390101.367978-3.644729.339941-1.303692-.02804-2.270947-.199759-3.199652-.567737-1.16351-.459095-1.738256-.946227-1.74176-1.471909-.007-.592269.865623-1.258133 2.362065-1.801338l.4626-.171723-.364473-.210272c-.19976-.119154-.672874-.396013-1.04786-.6168l-.683387-.399518-.452087.157705c-1.31771.459096-2.316506 1.005805-2.898261 1.584055-.3855.389005-.50115.606287-.515168 1.002301-.01402.336437.04205.511664.26985.823569.42405.581754 1.478919 1.184537 3.105029 1.769796.928705.336437 2.702006.6168 4.590957.728946.441574.02804 1.731247.02103 2.17282-.01051zm-.707918-1.706714c-.06659-1.654147-.175228-5.393499-.157705-5.414526.01402-.01402.406527-.03154.872632-.03505l.844596-.01051-1.286169-3.038443c-.707918-1.671669-1.293178-3.045452-1.303692-3.055965-.01051-.01051-.4626 1.342241-1.009309 3.003397-.54671 1.661156-1.002301 3.041947-1.00931 3.066479-.01402.03154.129668.04205.648341.04205.367978 0 .676378.01051.683387.02804.01402.02103-.108641 3.932103-.164714 5.274344l-.02103.515169h.960246.960246z"/></g></svg>